<?xml version="1.0" standalone="no"?>
<!DOCTYPE svg PUBLIC "-//W3C//DTD SVG 20010904//EN"
 "http://www.w3.org/TR/2001/REC-SVG-20010904/DTD/svg10.dtd">
<svg version="1.0" xmlns="http://www.w3.org/2000/svg"
 width="80" height="80" viewBox="0 0 225.000000 225.000000"
 preserveAspectRatio="xMidYMid meet">

<g transform="translate(0.000000,225.000000) scale(0.100000,-0.100000)"
fill="#00df5e" stroke="none">
<path d="M841 2225 c-95 -17 -199 -69 -228 -114 -22 -32 -23 -45 -23 -197 l0
-164 273 -2 272 -3 0 -40 0 -40 -430 -5 c-477 -6 -464 -4 -551 -76 -53 -43
-108 -150 -129 -249 -20 -94 -19 -319 1 -426 21 -113 71 -216 130 -268 62 -54
121 -71 250 -71 l102 0 4 183 c3 166 5 187 27 235 30 68 103 133 171 155 45
15 100 17 375 17 298 0 328 2 390 21 75 23 134 70 168 133 21 39 22 54 25 368
3 311 2 329 -17 366 -45 89 -149 150 -301 178 -97 17 -410 17 -509 -1z m18
-156 c64 -22 81 -110 32 -160 -49 -48 -125 -38 -156 21 -21 40 -19 72 6 104
34 43 66 53 118 35z"/>
<path d="M1748 1498 c-3 -166 -5 -188 -27 -235 -13 -29 -43 -70 -66 -92 -82
-75 -77 -75 -480 -81 -413 -7 -425 -9 -506 -90 -75 -75 -79 -99 -79 -454 0
-345 2 -351 85 -424 92 -81 223 -111 485 -111 255 0 400 32 469 103 42 43 47
71 43 243 l-3 143 -270 0 -269 0 0 45 0 44 433 3 432 3 53 29 c83 47 142 127
178 245 20 68 20 446 -1 526 -36 135 -121 241 -218 270 -31 9 -91 15 -153 15
l-102 0 -4 -182z m-237 -1159 c66 -71 8 -182 -86 -165 -40 8 -85 57 -85 92 0
58 46 103 103 104 31 0 45 -7 68 -31z"/>
</g>
</svg>
